<svg width="32" height="32" viewBox="0 0 32 32" fill="none" xmlns="http://www.w3.org/2000/svg">
<path d="M14.4 11.2H17.6C18.0244 11.2 18.4313 11.3686 18.7314 11.6686C19.0314 11.9687 19.2 12.3757 19.2 12.8C19.2 13.2243 19.3686 13.6313 19.6686 13.9314C19.9687 14.2314 20.3757 14.4 20.8 14.4C21.2243 14.4 21.6313 14.2314 21.9314 13.9314C22.2314 13.6313 22.4 13.2243 22.4 12.8C22.4 11.527 21.8943 10.3061 20.9941 9.40588C20.0939 8.50571 18.873 8 17.6 8H14.4C13.127 8 11.9061 8.50571 11.0059 9.40588C10.1057 10.3061 9.60001 11.527 9.60001 12.8V19.2C9.60001 20.473 10.1057 21.6939 11.0059 22.5941C11.9061 23.4943 13.127 24 14.4 24H17.6C18.873 24 20.0939 23.4943 20.9941 22.5941C21.8943 21.6939 22.4 20.473 22.4 19.2C22.4 18.7756 22.2314 18.3687 21.9314 18.0686C21.6313 17.7686 21.2243 17.6 20.8 17.6C20.3757 17.6 19.9687 17.7686 19.6686 18.0686C19.3686 18.3687 19.2 18.7756 19.2 19.2C19.2 19.6243 19.0314 20.0313 18.7314 20.3314C18.4313 20.6314 18.0244 20.8 17.6 20.8H14.4C13.9757 20.8 13.5687 20.6314 13.2686 20.3314C12.9686 20.0313 12.8 19.6243 12.8 19.2V12.8C12.8 12.3757 12.9686 11.9687 13.2686 11.6686C13.5687 11.3686 13.9757 11.2 14.4 11.2ZM16 0C12.8355 0 9.74207 0.938383 7.11088 2.69649C4.4797 4.45459 2.42894 6.95344 1.21793 9.87706C0.00693254 12.8007 -0.309921 16.0177 0.307443 19.1214C0.924806 22.2251 2.44866 25.0761 4.6863 27.3137C6.92394 29.5513 9.77487 31.0752 12.8786 31.6926C15.9823 32.3099 19.1993 31.9931 22.1229 30.7821C25.0466 29.5711 27.5454 27.5203 29.3035 24.8891C31.0616 22.2579 32 19.1645 32 16C32 13.8988 31.5861 11.8183 30.7821 9.87706C29.978 7.93585 28.7994 6.17203 27.3137 4.68629C25.828 3.20055 24.0641 2.022 22.1229 1.21793C20.1817 0.413852 18.1012 0 16 0ZM16 28.8C13.4684 28.8 10.9937 28.0493 8.88871 26.6428C6.78376 25.2363 5.14315 23.2372 4.17435 20.8983C3.20555 18.5594 2.95206 15.9858 3.44596 13.5028C3.93985 11.0199 5.15893 8.73914 6.94904 6.94903C8.73915 5.15892 11.0199 3.93984 13.5028 3.44595C15.9858 2.95206 18.5595 3.20554 20.8984 4.17434C23.2372 5.14314 25.2363 6.78375 26.6428 8.8887C28.0493 10.9936 28.8 13.4684 28.8 16C28.8 19.3948 27.4514 22.6505 25.051 25.051C22.6505 27.4514 19.3948 28.8 16 28.8Z" fill="white"/>
</svg>
