<svg width="50" height="50" viewBox="0 0 50 50" fill="none" xmlns="http://www.w3.org/2000/svg">
<path d="M19.8286 20.975C19.053 20.975 18.3088 21.2447 17.7603 21.7246C17.2119 22.2045 16.9038 22.8554 16.9038 23.5341C16.9038 24.2128 17.212 24.8637 17.7604 25.3436C18.3089 25.8235 19.0528 26.0932 19.8285 26.0932C20.6041 26.0932 21.348 25.8235 21.8965 25.3436C22.445 24.8637 22.7531 24.2128 22.7531 23.5341C22.7532 22.8554 22.4451 22.2045 21.8966 21.7246C21.3482 21.2447 20.6043 20.975 19.8286 20.975ZM30.2572 20.975C29.6185 20.9276 28.9783 21.0501 28.4205 21.3264C27.8627 21.6027 27.4132 22.0199 27.1309 22.5234C26.8486 23.0269 26.7466 23.5933 26.8383 24.1484C26.93 24.7035 27.2111 25.2214 27.6448 25.6344C28.0785 26.0474 28.6446 26.3361 29.269 26.4629C29.8933 26.5897 30.5469 26.5486 31.1441 26.3449C31.7414 26.1413 32.2544 25.7846 32.6161 25.3215C32.9778 24.8585 33.1713 24.3107 33.1712 23.7499C33.1883 23.4002 33.1265 23.051 32.9892 22.7223C32.852 22.3935 32.642 22.0917 32.3714 21.834C32.1008 21.5763 31.7748 21.3678 31.412 21.2204C31.0492 21.073 30.6568 20.9896 30.2572 20.975ZM44.1427 0H5.85735C5.08627 0.00159397 4.3231 0.136073 3.61143 0.395758C2.89975 0.655443 2.25351 1.03525 1.7096 1.51348C1.16568 1.99172 0.734758 2.55902 0.441427 3.18299C0.148095 3.80695 -0.00189567 4.47537 1.80849e-05 5.15006V38.9501C-0.0018628 39.6247 0.148152 40.2931 0.441497 40.9171C0.734841 41.541 1.16577 42.1083 1.70968 42.5865C2.25359 43.0647 2.89982 43.4445 3.61148 43.7042C4.32314 43.9639 5.08629 44.0984 5.85735 44.1H38.2572L36.7428 39.4749L40.3998 42.4499L43.8571 45.2499L50 50V5.15006C50.0019 4.47537 49.8519 3.80695 49.5586 3.18299C49.2652 2.55902 48.8343 1.99172 48.2904 1.51348C47.7465 1.03525 47.1002 0.655443 46.3886 0.395758C45.6769 0.136073 44.9137 0.00159397 44.1427 0ZM33.1143 32.6499C33.1143 32.6499 32.0855 31.575 31.2283 30.625C33.2994 30.1983 35.1313 29.1445 36.4 27.65C35.372 28.2487 34.2697 28.7435 33.1143 29.1249C31.7851 29.6213 30.395 29.9821 28.9714 30.1999C26.5244 30.5941 24.0149 30.5857 21.5715 30.175C20.137 29.9293 18.7311 29.5695 17.3713 29.1001C16.6546 28.8589 15.9578 28.5748 15.2856 28.2501C15.1998 28.1999 15.1143 28.175 15.0286 28.125C14.9856 28.1063 14.9468 28.0809 14.9143 28.0501C14.4002 27.8001 14.114 27.625 14.114 27.625C15.3369 29.0882 17.1055 30.1316 19.1142 30.575C18.2573 31.5252 17.2001 32.6499 17.2001 32.6499C15.5029 32.69 13.8205 32.3643 12.3009 31.7017C10.7814 31.0391 9.47128 30.0598 8.48593 28.85C8.5787 23.7818 9.98542 18.7981 12.6 14.2749C14.901 12.6937 17.7063 11.7765 20.6285 11.6499L20.914 11.9501C18.1647 12.5453 15.5992 13.6635 13.4 15.225C13.4 15.225 14.0287 14.925 15.0856 14.5C17.1395 13.6796 19.3284 13.1481 21.5717 12.9251C21.7317 12.896 21.8943 12.8792 22.0576 12.875C23.9722 12.6567 25.9097 12.64 27.8288 12.8251C30.8469 13.1266 33.7685 13.9419 36.4288 15.225C34.3411 13.738 31.9163 12.6558 29.3149 12.05L29.7147 11.6502C32.637 11.7766 35.4423 12.6938 37.7432 14.2752C40.358 18.7983 41.7649 23.7819 41.8577 28.8501C40.8643 30.0587 39.5484 31.0367 38.0246 31.699C36.5008 32.3612 34.8152 32.6877 33.1143 32.6499Z" fill="white"/>
</svg>
