<svg width="50" height="50" viewBox="0 0 50 50" fill="none" xmlns="http://www.w3.org/2000/svg">
<path d="M36.9512 0H12.9878C5.85366 0 0 5.66826 0 12.7088V37.2912C0 44.2721 5.79268 50 12.9878 50H37.0122C44.1463 50 50 44.3317 50 37.2912V12.6492C49.939 5.66826 44.1463 0 36.9512 0ZM41.2805 41.5275H31.8902C31.8293 41.5275 31.7683 41.5274 31.7683 41.4678L22.9878 28.9976H22.9268C19.3902 32.9952 15.9146 36.9332 12.5 40.8115C12.3171 41.0501 12.0732 41.2291 11.8902 41.4081C11.8293 41.4678 11.7683 41.4678 11.7073 41.4678H9.14634C9.08537 41.4678 9.02439 41.4678 9.08537 41.4081L21.5854 27.2076C21.6463 27.148 21.6463 27.0883 21.5854 27.0286L9.14634 9.30788V9.24821H18.5976C18.6585 9.24821 18.6585 9.24821 18.7195 9.30788L27.0122 21.0621C27.0122 21.0621 27.0122 21.0621 27.0732 21.0621L37.3781 9.30788C37.439 9.24821 37.5 9.24821 37.561 9.24821H40.122C40.2439 9.24821 40.2439 9.30788 40.1829 9.36754L28.3537 22.7924C28.2927 22.852 28.2927 22.9117 28.3537 22.9714L41.3415 41.4678C41.3415 41.4678 41.3415 41.5275 41.2805 41.5275Z" fill="white"/>
<path d="M17.5 11.3962H13.4146C13.3536 11.3962 13.3536 11.4559 13.3536 11.5156L32.9878 39.3795C32.9878 39.3795 32.9878 39.3795 33.0488 39.3795H37.0731C37.1341 39.3795 37.1341 39.3199 37.1341 39.2602L17.5 11.3962Z" fill="white"/>
</svg>
