<svg width="50" height="50" viewBox="0 0 50 50" fill="none" xmlns="http://www.w3.org/2000/svg">
<path d="M36.125 11.3751C35.6305 11.3751 35.1472 11.5217 34.736 11.7964C34.3249 12.0711 34.0045 12.4616 33.8153 12.9184C33.626 13.3752 33.5765 13.8779 33.673 14.3628C33.7695 14.8478 34.0076 15.2932 34.3572 15.6428C34.7068 15.9925 35.1523 16.2306 35.6372 16.327C36.1222 16.4235 36.6249 16.374 37.0817 16.1848C37.5385 15.9956 37.9289 15.6751 38.2036 15.264C38.4783 14.8529 38.625 14.3695 38.625 13.8751C38.625 13.212 38.3616 12.5762 37.8927 12.1073C37.4239 11.6385 36.788 11.3751 36.125 11.3751ZM45.7083 16.4167C45.6678 14.6882 45.344 12.978 44.75 11.3542C44.2202 9.96494 43.3958 8.70691 42.3333 7.66675C41.3017 6.59889 40.0407 5.77962 38.6458 5.27091C37.0263 4.65875 35.3142 4.3276 33.5833 4.29175C31.375 4.16675 30.6666 4.16675 25 4.16675C19.3333 4.16675 18.625 4.16675 16.4166 4.29175C14.6857 4.3276 12.9736 4.65875 11.3541 5.27091C9.96179 5.78477 8.70191 6.60333 7.66663 7.66675C6.59876 8.69837 5.77949 9.95933 5.27079 11.3542C4.65863 12.9737 4.32748 14.6858 4.29163 16.4167C4.16663 18.6251 4.16663 19.3334 4.16663 25.0001C4.16663 30.6667 4.16663 31.3751 4.29163 33.5834C4.32748 35.3144 4.65863 37.0265 5.27079 38.6459C5.77949 40.0408 6.59876 41.3018 7.66663 42.3334C8.70191 43.3968 9.96179 44.2154 11.3541 44.7292C12.9736 45.3414 14.6857 45.6726 16.4166 45.7084C18.625 45.8334 19.3333 45.8334 25 45.8334C30.6666 45.8334 31.375 45.8334 33.5833 45.7084C35.3142 45.6726 37.0263 45.3414 38.6458 44.7292C40.0407 44.2206 41.3017 43.4013 42.3333 42.3334C43.4005 41.2971 44.2257 40.038 44.75 38.6459C45.344 37.0222 45.6678 35.312 45.7083 33.5834C45.7083 31.3751 45.8333 30.6667 45.8333 25.0001C45.8333 19.3334 45.8333 18.6251 45.7083 16.4167ZM41.9583 33.3334C41.9431 34.6559 41.7036 35.9661 41.25 37.2084C40.9173 38.1151 40.383 38.9343 39.6875 39.6043C39.0117 40.2928 38.1942 40.826 37.2916 41.1668C36.0493 41.6204 34.7391 41.8599 33.4166 41.8751C31.3333 41.9793 30.5625 42.0001 25.0833 42.0001C19.6041 42.0001 18.8333 42.0001 16.75 41.8751C15.3768 41.9008 14.0095 41.6894 12.7083 41.2501C11.8453 40.8919 11.0653 40.3601 10.4166 39.6876C9.72514 39.0183 9.19755 38.1984 8.87496 37.2917C8.36633 36.0317 8.08422 34.6916 8.04163 33.3334C8.04163 31.2501 7.91663 30.4792 7.91663 25.0001C7.91663 19.5209 7.91663 18.7501 8.04163 16.6667C8.05096 15.3148 8.29777 13.975 8.77079 12.7084C9.13756 11.8291 9.70051 11.0452 10.4166 10.4167C11.0496 9.70043 11.8318 9.13153 12.7083 8.75008C13.9782 8.29184 15.3166 8.05233 16.6666 8.04175C18.75 8.04175 19.5208 7.91675 25 7.91675C30.4791 7.91675 31.25 7.91675 33.3333 8.04175C34.6557 8.05692 35.966 8.29643 37.2083 8.75008C38.155 9.10144 39.0047 9.67268 39.6875 10.4167C40.3702 11.0567 40.9036 11.8391 41.25 12.7084C41.713 13.977 41.9526 15.3163 41.9583 16.6667C42.0625 18.7501 42.0833 19.5209 42.0833 25.0001C42.0833 30.4792 42.0625 31.2501 41.9583 33.3334ZM25 14.3126C22.8871 14.3167 20.8228 14.947 19.068 16.1239C17.3132 17.3007 15.9466 18.9713 15.1409 20.9246C14.3351 22.8778 14.1265 25.0261 14.5412 27.0979C14.9559 29.1697 15.9755 31.072 17.471 32.5646C18.9665 34.0572 20.8708 35.073 22.9434 35.4837C25.016 35.8944 27.1638 35.6816 29.1155 34.872C31.0672 34.0625 32.7351 32.6927 33.9086 30.9356C35.082 29.1785 35.7083 27.113 35.7083 25.0001C35.7111 23.5941 35.4358 22.2013 34.8984 20.9021C34.361 19.6028 33.572 18.4226 32.5768 17.4294C31.5816 16.4361 30.3999 15.6494 29.0995 15.1145C27.7992 14.5796 26.406 14.3071 25 14.3126ZM25 31.9376C23.6279 31.9376 22.2866 31.5307 21.1457 30.7684C20.0048 30.0061 19.1156 28.9226 18.5905 27.6549C18.0655 26.3873 17.9281 24.9924 18.1958 23.6466C18.4634 22.3009 19.1242 21.0648 20.0944 20.0945C21.0646 19.1243 22.3008 18.4636 23.6465 18.1959C24.9923 17.9282 26.3872 18.0656 27.6548 18.5907C28.9225 19.1158 30.006 20.0049 30.7683 21.1458C31.5306 22.2867 31.9375 23.628 31.9375 25.0001C31.9375 25.9111 31.758 26.8133 31.4094 27.6549C31.0607 28.4966 30.5497 29.2614 29.9055 29.9056C29.2613 30.5498 28.4965 31.0609 27.6548 31.4095C26.8131 31.7581 25.911 31.9376 25 31.9376Z" fill="white"/>
</svg>
