<svg width="17" height="20" viewBox="0 0 17 20" fill="none" xmlns="http://www.w3.org/2000/svg">
<path d="M9.72928 0.00533451C8.72422 -0.0329202 7.72196 0.134894 6.78417 0.498451C5.84639 0.862007 4.99292 1.41362 4.27628 2.11933C3.553 2.81641 2.97838 3.65273 2.58704 4.57787C2.19571 5.50302 1.99577 6.49783 1.99928 7.50233V7.53233L0.095277 11.5763C0.0235392 11.7287 -0.00856197 11.8967 0.0019507 12.0648C0.0124634 12.2328 0.0652494 12.3955 0.155413 12.5378C0.245577 12.68 0.370198 12.7971 0.517718 12.8784C0.665238 12.9596 0.830878 13.0022 0.999277 13.0023H1.99928V15.0023C1.99981 15.5326 2.21069 16.041 2.58565 16.416C2.96061 16.7909 3.46901 17.0018 3.99928 17.0023H4.99928V19.0023C4.99928 19.2676 5.10463 19.5219 5.29217 19.7094C5.47971 19.897 5.73406 20.0023 5.99928 20.0023C6.26449 20.0023 6.51885 19.897 6.70638 19.7094C6.89392 19.5219 6.99928 19.2676 6.99928 19.0023V17.0023C7.26449 17.0023 7.51885 16.897 7.70638 16.7094C7.89392 16.5219 7.99928 16.2676 7.99928 16.0023C7.99928 15.7371 7.89392 15.4828 7.70638 15.2952C7.51885 15.1077 7.26449 15.0023 6.99928 15.0023H3.99928V12.0023C3.99928 11.7371 3.89392 11.4828 3.70638 11.2952C3.51885 11.1077 3.26449 11.0023 2.99928 11.0023H2.57528L3.91528 8.15833C3.98418 8.01333 4.01678 7.85374 4.01028 7.69333L3.99928 7.50233C3.99674 6.76577 4.14341 6.03631 4.43042 5.35796C4.71744 4.67961 5.13886 4.06641 5.66928 3.55533C6.19906 3.04343 6.82584 2.64261 7.51276 2.37643C8.19969 2.11025 8.93289 1.98408 9.66928 2.00533C11.1295 2.09649 12.4983 2.74708 13.4911 3.82177C14.4838 4.89646 15.024 6.3125 14.9993 7.77533L13.0323 15.2793C12.9863 15.4546 12.9884 15.6391 13.0383 15.8133L14.0383 19.2793C14.0985 19.4877 14.2248 19.6708 14.3981 19.8012C14.5714 19.9316 14.7824 20.0022 14.9993 20.0023C15.093 20.0018 15.1862 19.9884 15.2763 19.9623C15.5309 19.8889 15.746 19.7173 15.8743 19.4854C16.0025 19.2534 16.0335 18.9801 15.9603 18.7253L15.0363 15.5253L16.9663 8.25833C16.988 8.17472 16.999 8.08871 16.9993 8.00233V7.77433C17.0206 5.7925 16.2768 3.8788 14.9225 2.43165C13.5683 0.984498 11.7082 0.115414 9.72928 0.00533451Z" fill="white"/>
</svg>
