<svg width="15" height="17" viewBox="0 0 15 17" fill="none" xmlns="http://www.w3.org/2000/svg">
<path d="M13.4581 7.50088H12.7002C12.5421 6.03402 11.9741 4.67061 11.0855 3.62508C10.1969 2.57955 9.0382 1.91122 7.79154 1.7252V0.833431C7.79154 0.612391 7.71691 0.400405 7.58408 0.244106C7.45124 0.0878076 7.27108 0 7.08322 0C6.89536 0 6.7152 0.0878076 6.58236 0.244106C6.44952 0.400405 6.3749 0.612391 6.3749 0.833431V1.7252C5.12823 1.91122 3.96949 2.57955 3.08091 3.62508C2.19232 4.67061 1.62432 6.03402 1.46623 7.50088H0.708322C0.520463 7.50088 0.340299 7.58868 0.207463 7.74498C0.0746265 7.90128 0 8.11327 0 8.33431C0 8.55535 0.0746265 8.76733 0.207463 8.92363C0.340299 9.07993 0.520463 9.16774 0.708322 9.16774H1.46623C1.62432 10.6346 2.19232 11.998 3.08091 13.0435C3.96949 14.0891 5.12823 14.7574 6.3749 14.9434V15.8352C6.3749 16.0562 6.44952 16.2682 6.58236 16.4245C6.7152 16.5808 6.89536 16.6686 7.08322 16.6686C7.27108 16.6686 7.45124 16.5808 7.58408 16.4245C7.71691 16.2682 7.79154 16.0562 7.79154 15.8352V14.9434C9.0382 14.7574 10.1969 14.0891 11.0855 13.0435C11.9741 11.998 12.5421 10.6346 12.7002 9.16774H13.4581C13.646 9.16774 13.8261 9.07993 13.959 8.92363C14.0918 8.76733 14.1664 8.55535 14.1664 8.33431C14.1664 8.11327 14.0918 7.90128 13.959 7.74498C13.8261 7.58868 13.646 7.50088 13.4581 7.50088ZM10.6248 9.16774H11.2694C11.1218 10.1899 10.7078 11.1328 10.0847 11.8659C9.46161 12.5991 8.66026 13.0862 7.79154 13.2599V12.5015C7.79154 12.2804 7.71691 12.0684 7.58408 11.9121C7.45124 11.7558 7.27108 11.668 7.08322 11.668C6.89536 11.668 6.7152 11.7558 6.58236 11.9121C6.44952 12.0684 6.3749 12.2804 6.3749 12.5015V13.2599C5.50618 13.0862 4.70483 12.5991 4.08175 11.8659C3.45866 11.1328 3.04466 10.1899 2.89704 9.16774H3.54161C3.72947 9.16774 3.90963 9.07993 4.04247 8.92363C4.1753 8.76733 4.24993 8.55535 4.24993 8.33431C4.24993 8.11327 4.1753 7.90128 4.04247 7.74498C3.90963 7.58868 3.72947 7.50088 3.54161 7.50088H2.89704C3.04466 6.47872 3.45866 5.53583 4.08175 4.80269C4.70483 4.06956 5.50618 3.58243 6.3749 3.40873V4.16715C6.3749 4.38819 6.44952 4.60018 6.58236 4.75648C6.7152 4.91278 6.89536 5.00058 7.08322 5.00058C7.27108 5.00058 7.45124 4.91278 7.58408 4.75648C7.71691 4.60018 7.79154 4.38819 7.79154 4.16715V3.40873C8.66026 3.58243 9.46161 4.06956 10.0847 4.80269C10.7078 5.53583 11.1218 6.47872 11.2694 7.50088H10.6248C10.437 7.50088 10.2568 7.58868 10.124 7.74498C9.99113 7.90128 9.91651 8.11327 9.91651 8.33431C9.91651 8.55535 9.99113 8.76733 10.124 8.92363C10.2568 9.07993 10.437 9.16774 10.6248 9.16774ZM7.08322 7.50088C6.94313 7.50088 6.80618 7.54976 6.6897 7.64133C6.57321 7.73291 6.48243 7.86308 6.42881 8.01537C6.3752 8.16766 6.36118 8.33523 6.38851 8.4969C6.41584 8.65857 6.4833 8.80707 6.58236 8.92363C6.68142 9.04019 6.80763 9.11956 6.94503 9.15172C7.08243 9.18388 7.22485 9.16738 7.35428 9.1043C7.48371 9.04122 7.59433 8.93439 7.67217 8.79734C7.75 8.66028 7.79154 8.49914 7.79154 8.33431C7.79154 8.11327 7.71691 7.90128 7.58408 7.74498C7.45124 7.58868 7.27108 7.50088 7.08322 7.50088Z" fill="white"/>
</svg>
