<svg width="36" height="32" viewBox="0 0 36 32" fill="none" xmlns="http://www.w3.org/2000/svg">
<path d="M2.93225 18.3902H25.188L15.5116 27.0264C14.9594 27.5207 14.6492 28.1912 14.6492 28.8902C14.6492 29.5892 14.9594 30.2597 15.5116 30.7539C16.0637 31.2482 16.8126 31.5259 17.5935 31.5259C18.3743 31.5259 19.1232 31.2482 19.6754 30.7539L34.3366 17.6289C34.6036 17.3793 34.8128 17.0849 34.9524 16.7627C35.2457 16.1236 35.2457 15.4068 34.9524 14.7677C34.8128 14.4455 34.6036 14.1511 34.3366 13.9014L19.6754 0.776453C19.4028 0.530416 19.0785 0.335127 18.7212 0.201859C18.3638 0.0685902 17.9806 -2.09808e-05 17.5935 -2.09808e-05C17.2064 -2.09808e-05 16.8231 0.0685902 16.4658 0.201859C16.1085 0.335127 15.7842 0.530416 15.5116 0.776453C15.2367 1.02048 15.0186 1.31081 14.8697 1.63069C14.7209 1.95057 14.6442 2.29367 14.6442 2.6402C14.6442 2.98673 14.7209 3.32983 14.8697 3.64972C15.0186 3.96959 15.2367 4.25992 15.5116 4.50395L25.188 13.1402H2.93225C2.15457 13.1402 1.40874 13.4168 0.858841 13.909C0.308937 14.4013 7.62939e-06 15.069 7.62939e-06 15.7652C7.62939e-06 16.4614 0.308937 17.1291 0.858841 17.6214C1.40874 18.1136 2.15457 18.3902 2.93225 18.3902Z" fill="#0C0C0C"/>
</svg>
